# xmcd CD database file
#
# Track frame offsets:
#	150
#	17189
#	34316
#	58677
#	77089
#	95919
#	116420
#
# Disc length: 1903 seconds
#
# Revision: 2
# Processed by: cddbd v1.5.1PL0 Copyright (c) Steve Scherf et al.
# Submitted via: CDex 1.51
#
DISCID=59076d07
DTITLE=Various Artist - Crism -CLANNAD Arrange CD-
DYEAR=2004
DGENRE=Game
TTITLE0=ハル/汐 -Long mix-
TTITLE1=Futamint/は〜りぃすたーふぃっしゅ -Symphonic House Mix-
TTITLE2=ハル/白詰草 -house mix-
TTITLE3=Futamint/それは風のように
TTITLE4=ハル/夏時間
TTITLE5=Futamint/東風 -Dream Trance Modokix-
TTITLE6=ハル/同じ高みへ -to the same sky-
EXTD=YEAR: 2004
EXTT0=
EXTT1=
EXTT2=
EXTT3=
EXTT4=
EXTT5=
EXTT6=
PLAYORDER=
